<svg width="127" height="48" viewBox="0 0 127 48" fill="none" xmlns="http://www.w3.org/2000/svg">
<g style="mix-blend-mode:luminosity" clip-path="url(#clip0_112_658)">
<path fill-rule="evenodd" clip-rule="evenodd" d="M125.591 30.5633C120.336 38.4606 112.012 36.1691 109.513 34.3749C108.449 35.0147 106.583 36.417 104.096 36.255C98.798 35.9104 96.9009 29.2007 96.9009 29.2007C96.9389 29.2275 95.3228 29.6949 94.4494 29.6866C94.4381 31.6542 92.519 36.3546 87.3397 36.2945C81.5278 36.2273 80.3462 28.5531 80.3462 28.5531C80.3462 28.5531 79.7678 29.2649 77.5687 29.9739C77.6794 28.4622 77.5985 36.0644 70.6326 36.1761C65.1257 36.2646 63.6391 28.4348 63.6391 28.4348C63.6391 28.4348 62.6838 29.3143 60.8324 29.6194C60.95 28.0831 60.7587 36.2019 53.792 36.1761C49.084 36.1588 47.4752 31.353 47.6003 30.686C47.76 29.8359 46.0091 36.2957 41.436 36.195C39.5488 36.1459 38.1419 34.9349 37.259 33.3204C36.0771 34.5189 34.3612 36.195 32.4363 36.195C28.981 36.195 27.4578 33.6337 27.7157 26.3179C27.7378 25.4502 27.6671 25.109 26.6939 24.9792C26.1097 24.8928 25.5115 24.7292 24.8785 24.643C24.6756 25.243 22.9549 35.9998 17.0381 36.204C15.0531 36.2725 13.9677 34.7485 13.0763 33.6174C11.7099 35.2194 9.90623 36.255 7.33669 36.255C2.98411 36.255 0.0185547 33.1365 0.0185547 29.2895C0.0185547 25.4425 2.98411 22.3242 7.33669 22.3242C8.10628 22.3242 8.32232 22.422 9.02537 22.6038C7.57951 10.9365 10.9941 9.11303 13.9811 9.11303C16.8488 9.11303 21.7479 15.012 14.8544 29.9751C16.3849 34.4381 19.6843 34.1857 21.2698 24.9982C21.5925 23.1307 20.7297 20.6105 22.0718 20.2588C24.525 19.616 24.7854 21.5446 25.9356 21.866C27.1519 22.2056 27.8619 22.1724 29.0295 22.3885C31.0248 22.7339 31.8034 23.6838 31.5603 25.7996C31.2683 28.4767 30.7577 32.3732 32.3147 32.8481C33.4375 33.1931 35.4875 31.1293 35.8473 30.0001C36.2069 28.871 36.282 28.4845 36.3139 27.6563C36.3626 25.8861 36.4237 24.5886 36.7642 23.2499C36.91 22.7319 37.0762 22.3888 37.7374 22.3654C38.2816 22.3531 39.2766 22.2079 39.7146 22.51C40.2985 22.8988 40.2255 23.2933 40.1585 24.3316C39.4795 39.1353 44.7055 31.7452 46.2637 25.8279C45.7088 19.1369 46.0897 9.23555 50.8206 9.06949C53.281 8.98313 54.3687 10.7301 54.4884 12.034C54.8268 15.7168 52.9312 21.8172 50.4382 25.9197C49.0133 34.2907 56.6678 35.9459 57.8919 29.2642C55.8892 28.4202 53.7248 25.0044 55.4861 23.3397C56.4743 22.4055 60.5881 23.7476 60.6555 26.6748C62.6734 26.1965 62.9428 25.1867 62.9707 25.354C62.416 18.663 62.9305 9.23564 67.6617 9.06957C70.1218 8.98321 71.2093 10.7301 71.329 12.0341C71.6674 15.7168 69.7718 21.8173 67.2791 25.9199C65.8541 34.2907 73.5087 35.946 74.7325 29.2643C73.2498 29.0107 70.1198 25.3775 71.9257 23.3398C72.8908 22.2509 76.9895 24.5154 77.4484 26.7717C79.3869 26.2855 79.6502 25.3078 79.678 25.4724C79.1231 18.7816 79.6376 9.35422 84.3688 9.18815C86.8289 9.10179 87.9164 10.8487 88.0361 12.1527C88.3745 15.8354 86.4789 21.936 83.9859 26.0385C82.5612 34.4095 90.2157 36.0644 91.4397 29.3827C89.4021 29.082 86.5063 25.2458 88.837 23.2833C89.7682 22.4992 93.3263 24.5346 94.1591 26.8568C95.3164 26.8173 96.0367 26.4636 96.1911 26.4279C94.3437 18.573 95.719 9.14836 100.808 9.06969C103.559 9.02721 106.249 10.3877 105.068 17.8606C103.941 24.9906 99.8912 27.9827 99.9006 28.0285C100.136 28.8827 102.215 36.0312 107.448 32.2594C107.177 31.7157 106.906 31.1603 106.754 30.4874C105.887 26.5677 107.591 22.1404 112.222 21.4249C114.875 21.0149 117.375 22.1598 117.77 24.741C118.42 28.9645 114.117 32.0233 112.481 32.6868C111.748 32.3178 119.124 36.5107 123.502 28.108C123.756 27.6282 124.062 27.6689 124.458 27.9162C124.738 28.0908 126.333 29.4299 125.591 30.5633ZM10.5028 28.2517C10.2801 27.6615 9.82296 26.361 9.66131 25.7976C8.77108 25.1114 8.13565 25 6.99295 25C4.45352 25 2.95885 27.0809 2.95885 29.3247C2.95885 31.5684 4.58718 33.6496 7.12663 33.6496C9.32735 33.6496 11.0023 32.3235 11.5133 30.4462C11.1556 29.7143 10.8008 29.0417 10.5028 28.2517ZM13.9188 12.2015C12.1345 12.2015 11.5292 15.974 11.6467 19.1924C11.7506 22.0378 12.6477 24.5428 13.1131 25.6653C13.2312 25.8059 13.2093 25.7144 13.3147 25.8636C16.4129 19.8472 15.1279 12.2015 13.9188 12.2015ZM51.0754 12.32C48.7692 12.0855 48.7841 20.6001 49.0704 22.51C50.2682 20.8118 52.3488 12.7772 51.0754 12.32ZM67.9161 12.32C65.6099 12.0855 65.6248 20.6001 65.9112 22.51C67.1088 20.8118 69.1896 12.7772 67.9161 12.32ZM84.6233 12.4384C82.317 12.204 82.3318 20.7186 82.6183 22.6287C83.8159 20.9303 85.8967 12.8956 84.6233 12.4384ZM101.063 11.8215C97.4698 12.461 98.3065 23.0789 98.8522 24.9412C103.085 19.789 103.172 11.628 101.063 11.8215ZM114.529 25.0903C114.347 24.4133 113.433 24.0515 112.803 24.1407C110.998 24.359 109.249 26.3505 109.926 29.3824C110.077 30.0576 110.454 30.6792 110.448 30.6585C114.486 28.2577 114.829 26.3659 114.529 25.0903ZM38.4447 20.0218C37.9291 20.0219 37.425 19.8864 36.9962 19.6326C36.5675 19.3787 36.2332 19.0179 36.0358 18.5957C35.8383 18.1735 35.7867 17.7089 35.8873 17.2607C35.9878 16.8124 36.2362 16.4007 36.6007 16.0775C36.9653 15.7543 37.4298 15.5342 37.9355 15.4451C38.4412 15.3559 38.9655 15.4016 39.4419 15.5765C39.9184 15.7514 40.3254 16.0476 40.6119 16.4276C40.8983 16.8076 41.0513 17.2544 41.0513 17.7114C41.0513 18.0148 40.9839 18.3152 40.8528 18.5955C40.7219 18.8758 40.53 19.1305 40.2879 19.345C40.0458 19.5596 39.7585 19.7298 39.4423 19.8459C39.126 19.962 38.7871 20.0218 38.4447 20.0218Z" fill="#0D0C22"/>
</g>
<defs>
<clipPath id="clip0_112_658">
<rect width="126.369" height="48" fill="white" transform="translate(0.0185547)"/>
</clipPath>
</defs>
</svg>
