<svg width="180" height="30" viewBox="0 0 180 30" fill="none" xmlns="http://www.w3.org/2000/svg">
<g clip-path="url(#clip0_112_953)">
<path d="M14.7573 4.95854L29.1886 0.78125L24.9778 15.0001L29.1886 29.1788L14.7573 25.0416L0.285156 29.1788L4.53687 15.0001L0.285156 0.78125L14.7573 4.95854Z" fill="white"/>
</g>
<path d="M40.1094 25.4722V2.91663H49.2268C50.6261 2.91663 51.8723 3.19589 52.9655 3.7544C54.0806 4.29144 54.9442 5.06477 55.5564 6.0744C56.1905 7.06255 56.5075 8.25477 56.5075 9.65107V10.07C56.5075 11.4663 56.1796 12.6692 55.5236 13.6788C54.8896 14.6885 54.0259 15.4618 52.9327 15.9988C51.8395 16.5359 50.6042 16.8044 49.2268 16.8044H43.6514V25.4722H40.1094ZM43.6514 13.6466H48.866C50.1123 13.6466 51.1071 13.3244 51.8505 12.68C52.5938 12.0355 52.9655 11.1548 52.9655 10.0377V9.71552C52.9655 8.577 52.5938 7.68551 51.8505 7.04107C51.1071 6.39663 50.1123 6.0744 48.866 6.0744H43.6514V13.6466Z" fill="white"/>
<path d="M67.0964 25.9233C65.4784 25.9233 64.0354 25.6011 62.7673 24.9566C61.521 24.2907 60.5371 23.3455 59.8156 22.1211C59.0941 20.8966 58.7333 19.4466 58.7333 17.7711V17.2877C58.7333 15.6122 59.0941 14.1729 59.8156 12.97C60.5371 11.7455 61.521 10.8003 62.7673 10.1344C64.0354 9.46848 65.4784 9.13552 67.0964 9.13552C68.7143 9.13552 70.1574 9.46848 71.4255 10.1344C72.6936 10.8003 73.6885 11.7455 74.41 12.97C75.1315 14.1729 75.4923 15.6122 75.4923 17.2877V17.7711C75.4923 19.4466 75.1315 20.8966 74.41 22.1211C73.6885 23.3455 72.6936 24.2907 71.4255 24.9566C70.1574 25.6011 68.7143 25.9233 67.0964 25.9233ZM67.0964 22.9589C68.5832 22.9589 69.7857 22.497 70.704 21.5733C71.6441 20.6281 72.1142 19.3285 72.1142 17.6744V17.3844C72.1142 15.7303 71.6551 14.4414 70.7368 13.5177C69.8185 12.5726 68.605 12.1 67.0964 12.1C65.6315 12.1 64.429 12.5726 63.4888 13.5177C62.5705 14.4414 62.1114 15.7303 62.1114 17.3844V17.6744C62.1114 19.3285 62.5705 20.6281 63.4888 21.5733C64.429 22.497 65.6315 22.9589 67.0964 22.9589Z" fill="white"/>
<path d="M86.3227 25.9233C84.2675 25.9233 82.5621 25.4722 81.2065 24.57C79.8509 23.6677 79.0201 22.3037 78.714 20.4777L81.8624 19.7366C82.0373 20.6174 82.3325 21.3155 82.7479 21.8311C83.1633 22.3466 83.6772 22.7118 84.2894 22.9266C84.9234 23.1414 85.6012 23.2488 86.3227 23.2488C87.3941 23.2488 88.214 23.0448 88.7825 22.6366C89.3728 22.2285 89.668 21.7022 89.668 21.0577C89.668 20.4133 89.3946 19.9407 88.848 19.64C88.3014 19.3392 87.4925 19.0922 86.4211 18.8989L85.306 18.7055C84.2128 18.5122 83.218 18.2329 82.3216 17.8677C81.4251 17.5026 80.7146 16.9977 80.1898 16.3533C79.6651 15.7088 79.4027 14.8818 79.4027 13.8722C79.4027 12.3685 79.9712 11.2085 81.1081 10.3922C82.245 9.5544 83.7537 9.13552 85.634 9.13552C87.4487 9.13552 88.9355 9.54366 90.0943 10.36C91.275 11.1548 92.0402 12.2396 92.3901 13.6144L89.2416 14.4844C89.0448 13.5177 88.6294 12.8411 87.9953 12.4544C87.3613 12.0463 86.5742 11.8422 85.634 11.8422C84.7157 11.8422 83.9942 12.014 83.4694 12.3577C82.9447 12.68 82.6823 13.1418 82.6823 13.7433C82.6823 14.3877 82.9338 14.8603 83.4367 15.1611C83.9614 15.4618 84.661 15.6874 85.5356 15.8377L86.6835 16.0311C87.8423 16.2244 88.9027 16.4929 89.8647 16.8366C90.8268 17.1803 91.5811 17.6744 92.1277 18.3188C92.6961 18.9633 92.9804 19.8226 92.9804 20.8966C92.9804 22.4863 92.3791 23.7214 91.1766 24.6022C89.9741 25.4829 88.3561 25.9233 86.3227 25.9233Z" fill="white"/>
<path d="M96.9288 25.4722V9.58663H100.307V25.4722H96.9288ZM98.6342 7.42774C97.9782 7.42774 97.4207 7.22366 96.9616 6.81552C96.5243 6.38589 96.3056 5.83811 96.3056 5.17218C96.3056 4.50626 96.5243 3.96922 96.9616 3.56107C97.4207 3.13144 97.9782 2.91663 98.6342 2.91663C99.312 2.91663 99.8695 3.13144 100.307 3.56107C100.744 3.96922 100.963 4.50626 100.963 5.17218C100.963 5.83811 100.744 6.38589 100.307 6.81552C99.8695 7.22366 99.312 7.42774 98.6342 7.42774Z" fill="white"/>
<path d="M111.387 25.4722C110.403 25.4722 109.616 25.1822 109.026 24.6022C108.458 24.0222 108.173 23.2489 108.173 22.2822V12.39H103.713V9.58663H108.173V4.3344H111.551V9.58663H116.372V12.39H111.551V21.7022C111.551 22.3466 111.857 22.6688 112.47 22.6688H115.848V25.4722H111.387Z" fill="white"/>
<path d="M120.341 25.4722V9.58663H123.719V25.4722H120.341ZM122.046 7.42774C121.39 7.42774 120.833 7.22366 120.374 6.81552C119.936 6.38589 119.718 5.83811 119.718 5.17218C119.718 4.50626 119.936 3.96922 120.374 3.56107C120.833 3.13144 121.39 2.91663 122.046 2.91663C122.724 2.91663 123.282 3.13144 123.719 3.56107C124.156 3.96922 124.375 4.50626 124.375 5.17218C124.375 5.83811 124.156 6.38589 123.719 6.81552C123.282 7.22366 122.724 7.42774 122.046 7.42774Z" fill="white"/>
<path d="M132.471 25.4722L127.027 9.58663H130.602L134.898 23.0233H135.423L139.719 9.58663H143.294L137.85 25.4722H132.471Z" fill="white"/>
<path d="M152.77 25.7622C151.546 25.7622 150.453 25.4937 149.491 24.9566C148.528 24.4196 147.774 23.657 147.228 22.6688C146.681 21.6807 146.408 20.4992 146.408 19.1244V9.58663H149.786V18.8989C149.786 20.2737 150.136 21.294 150.835 21.96C151.535 22.6044 152.508 22.9266 153.754 22.9266C155.131 22.9266 156.236 22.4755 157.066 21.5733C157.919 20.6496 158.346 19.3285 158.346 17.61V9.58663H161.724V25.4722H158.411V23.0877H157.886C157.58 23.7322 157.034 24.3444 156.247 24.9244C155.459 25.4829 154.301 25.7622 152.77 25.7622Z" fill="white"/>
<path d="M173.342 25.9233C171.287 25.9233 169.581 25.4722 168.226 24.57C166.87 23.6677 166.039 22.3037 165.733 20.4777L168.882 19.7366C169.056 20.6174 169.352 21.3155 169.767 21.8311C170.183 22.3466 170.696 22.7118 171.309 22.9266C171.943 23.1414 172.62 23.2488 173.342 23.2488C174.413 23.2488 175.233 23.0448 175.802 22.6366C176.392 22.2285 176.687 21.7022 176.687 21.0577C176.687 20.4133 176.414 19.9407 175.867 19.64C175.321 19.3392 174.512 19.0922 173.44 18.8989L172.325 18.7055C171.232 18.5122 170.237 18.2329 169.341 17.8677C168.444 17.5026 167.734 16.9977 167.209 16.3533C166.684 15.7088 166.422 14.8818 166.422 13.8722C166.422 12.3685 166.99 11.2085 168.127 10.3922C169.264 9.5544 170.773 9.13552 172.653 9.13552C174.468 9.13552 175.955 9.54366 177.113 10.36C178.294 11.1548 179.059 12.2396 179.409 13.6144L176.261 14.4844C176.064 13.5177 175.649 12.8411 175.014 12.4544C174.38 12.0463 173.593 11.8422 172.653 11.8422C171.735 11.8422 171.013 12.014 170.489 12.3577C169.964 12.68 169.702 13.1418 169.702 13.7433C169.702 14.3877 169.953 14.8603 170.456 15.1611C170.981 15.4618 171.68 15.6874 172.555 15.8377L173.703 16.0311C174.861 16.2244 175.922 16.4929 176.884 16.8366C177.846 17.1803 178.6 17.6744 179.147 18.3188C179.715 18.9633 180 19.8226 180 20.8966C180 22.4863 179.398 23.7214 178.196 24.6022C176.993 25.4829 175.375 25.9233 173.342 25.9233Z" fill="white"/>
<defs>
<clipPath id="clip0_112_953">
<rect width="29.5167" height="29" fill="white" transform="translate(0 0.5)"/>
</clipPath>
</defs>
</svg>
